<?xml version="1.0" encoding="UTF-8" standalone="no"?><!DOCTYPE svg PUBLIC "-//W3C//DTD SVG 1.1//EN" "http://www.w3.org/Graphics/SVG/1.1/DTD/svg11.dtd"><svg width="100%" height="100%" viewBox="0 0 218 133" version="1.1" xmlns="http://www.w3.org/2000/svg" xmlns:xlink="http://www.w3.org/1999/xlink" xml:space="preserve" xmlns:serif="http://www.serif.com/" style="fill-rule:evenodd;clip-rule:evenodd;stroke-linecap:round;stroke-linejoin:round;stroke-miterlimit:1.5;"><rect x="6.33" y="5.385" width="205.68" height="120.96" style="fill:none;stroke:#615e5c;stroke-width:8px;"/><g><g><path d="M73.35,107.462l0,-22.02c0,-5.88 -3.06,-10.5 -9.72,-10.5c-5.22,0 -8.58,2.22 -10.5,5.1l-0.66,-4.38l-5.16,0l0.42,9l0,22.8l6,0l0,-22.98c1.08,-1.74 3.36,-4.26 7.68,-4.26c3.9,0 6,2.22 6,6.18l0,21.06l5.94,0Z" style="fill:#615e5c;fill-rule:nonzero;"/><path d="M91.53,74.942c-8.7,0 -12.06,6.84 -12.06,15.78l0,1.68c0,8.94 3.36,15.78 12.06,15.78c4.68,0 7.56,-2.1 9.3,-4.86l0.66,4.14l5.22,0l-0.42,-9l0,-39l-6.06,0l0,19.5c-1.8,-2.34 -4.56,-4.02 -8.7,-4.02Zm8.7,23.7c-1.08,1.74 -3.3,4.26 -7.14,4.26c-5.22,0 -7.56,-4.02 -7.56,-10.5l0,-1.68c0,-6.48 2.34,-10.5 7.56,-10.5c3.84,0 6.06,2.52 7.14,4.26l0,14.16Z" style="fill:#615e5c;fill-rule:nonzero;"/><path d="M126.39,108.182c9.66,0 13.92,-6.84 13.92,-15.78l0,-1.68c0,-8.94 -4.26,-15.78 -13.92,-15.78c-9.66,0 -13.92,6.84 -13.92,15.78l0,1.68c0,8.94 4.26,15.78 13.92,15.78Zm0,-5.28c-5.4,0 -7.86,-4.14 -7.86,-10.5l0,-1.68c0,-6.36 2.46,-10.5 7.86,-10.5c5.4,0 7.86,4.14 7.86,10.5l0,1.68c0,6.36 -2.46,10.5 -7.86,10.5Z" style="fill:#615e5c;fill-rule:nonzero;"/><path d="M159.27,108.182c9.66,0 13.92,-6.84 13.92,-15.78l0,-1.68c0,-8.94 -4.26,-15.78 -13.92,-15.78c-9.66,0 -13.92,6.84 -13.92,15.78l0,1.68c0,8.94 4.26,15.78 13.92,15.78Zm0,-5.28c-5.4,0 -7.86,-4.14 -7.86,-10.5l0,-1.68c0,-6.36 2.46,-10.5 7.86,-10.5c5.4,0 7.86,4.14 7.86,10.5l0,1.68c0,6.36 -2.46,10.5 -7.86,10.5Z" style="fill:#615e5c;fill-rule:nonzero;"/><path d="M193.53,74.942c-4.08,0 -6.96,2.1 -8.76,4.8l-0.6,-4.08l-5.16,0l0.42,9l0,22.8l6,0l0,-22.62c1.14,-1.74 3.42,-4.08 7.92,-4.08l1.08,0l0,-5.76c-0.12,0 -0.54,-0.06 -0.9,-0.06Z" style="fill:#615e5c;fill-rule:nonzero;"/></g><g><path d="M24.18,101.907l10.877,-0.001c2.076,0 3.156,0.467 3.156,1.848c0,1.402 -1.08,1.849 -3.301,1.849l0,2.579l0.478,0c3.342,0 5.251,-1.138 5.251,-4.489c0,-3.229 -1.951,-4.508 -5.231,-4.508l-11.23,0l0,2.722Z" style="fill:#f8228f;fill-rule:nonzero;"/><path d="M33.314,92.158c0.332,-2.416 1.079,-3.188 2.49,-3.188l0.125,0c1.349,0 2.283,0.975 2.283,2.681l0,0.182c0,1.706 -0.996,2.742 -3.3,2.742l0,2.721l0.208,0c3.715,0 5.521,-1.929 5.521,-5.564c0,-3.534 -1.785,-5.544 -4.816,-5.544l-0.228,0c-2.844,0 -4.11,1.645 -4.588,5.097c-0.352,2.498 -1.1,3.087 -2.428,3.087l-0.125,0c-1.266,0 -2.117,-0.975 -2.117,-2.477l0,-0.183c0,-1.889 1.079,-2.661 3.508,-2.661l0,-2.721l-0.478,0c-3.653,0 -5.459,1.645 -5.459,5.402c0,3.432 1.827,5.422 4.692,5.422l0.207,0c2.678,0 4.027,-1.543 4.505,-4.996Z" style="fill:#f8228f;fill-rule:nonzero;"/><g><path d="M40.641,78.673c0,-3.96 -2.346,-5.848 -7.951,-5.848l-0.83,0c-5.605,0 -7.95,1.889 -7.95,5.849c0,3.98 2.346,5.869 7.95,5.869l0.831,0c5.604,0 7.95,-1.889 7.95,-5.87Zm-2.429,0.102c0,2.214 -1.868,2.985 -5.521,2.986l-0.831,0c-3.653,0 -5.521,-0.772 -5.521,-2.986l0,-0.182c0,-2.214 1.868,-2.986 5.521,-2.986l0.83,0c3.654,0 5.522,0.772 5.522,2.985l0,0.183Z" style="fill:#f8228f;fill-rule:nonzero;"/></g><path d="M24.179,59.462l0,2.579l7.743,0l3.425,-0.081l-11.167,5.849l0,2.884l16.191,-0.001l0,-2.579l-7.743,0l-3.425,0.082l11.168,-5.85l0,-2.883l-16.192,0Z" style="fill:#f8228f;fill-rule:nonzero;"/></g></g><path d="M47.37,122.625l0,7.68l52.155,0l0,-7.68l-52.155,0Z" style="fill:#fff;stroke:#808080;stroke-width:1px;"/><path d="M143.367,-6.6l0,17.52l39.003,0l0,-17.52l-39.003,0Z" style="fill:#fff;"/><path d="M182.13,44.342l-0.088,-39.004" style="fill:none;stroke:#808080;stroke-width:1px;"/><path d="M143.732,5.338c0,0 -0.754,18.741 10.977,29.158c14.542,12.913 27.421,9.846 27.421,9.846" style="fill:none;stroke:#808080;stroke-width:1px;"/></svg>