<?xml version="1.0" encoding="UTF-8" standalone="no"?><!DOCTYPE svg PUBLIC "-//W3C//DTD SVG 1.1//EN" "http://www.w3.org/Graphics/SVG/1.1/DTD/svg11.dtd"><svg width="100%" height="100%" viewBox="0 0 220 137" version="1.1" xmlns="http://www.w3.org/2000/svg" xmlns:xlink="http://www.w3.org/1999/xlink" xml:space="preserve" xmlns:serif="http://www.serif.com/" style="fill-rule:evenodd;clip-rule:evenodd;stroke-linecap:round;stroke-linejoin:round;stroke-miterlimit:1.5;"><rect x="6.33" y="9.225" width="205.68" height="120.96" style="fill:none;stroke:#615e5c;stroke-width:8px;"/><g><text x="44.01px" y="109.142px" style="font-family:'CooperHewitt-Medium', 'Cooper Hewitt';font-weight:707;font-size:60px;fill:#615e5c;">ndoor</text><g transform="matrix(-2.27107e-05,-1,1,-2.27107e-05,-290.976,29.807)"><text x="-80.57px" y="331.346px" style="font-family:'CooperHewitt-Semibold', 'Cooper Hewitt';font-weight:709;font-size:20.758px;fill:#f8228f;">J<tspan x="-69.928px -57.317px -43.812px " y="331.346px 331.346px 331.346px ">SON</tspan></text></g></g><path d="M47.37,126.465l0,7.68l52.155,0l0,-7.68l-52.155,0Z" style="fill:#fff;stroke:#808080;stroke-width:1px;"/><path d="M47.37,130.305l52.155,-0.12" style="fill:none;stroke:#808080;stroke-width:1px;"/><path d="M143.367,-2.76l0,17.52l39.003,0l0,-17.52l-39.003,0Z" style="fill:#fff;"/><path d="M182.13,48.182l0.24,-39.004" style="fill:none;stroke:#808080;stroke-width:1px;"/><path d="M143.367,9.178c0,0 -0.761,18.741 11.081,29.158c14.68,12.913 27.682,9.846 27.682,9.846" style="fill:none;stroke:#808080;stroke-width:1px;"/></svg>